# xmcd CD database file
#
# Track frame offsets:
#	150
#	11957
#	25669
#
# Disc length: 615 seconds
#
# Revision: 1
# Processed by: cddbd v1.5.2PL0 Copyright (c) Steve Scherf et al.
# Submitted via: CDex 1.51
#
DISCID=1a026503
DTITLE=Dirk Michaelis - Weihnachtszeit
DYEAR=2002
DGENRE=Weihnachten
TTITLE0=Weihnachtszeit (Radio Edit)
TTITLE1=Weihnachtszeit (Karaoke Version)
TTITLE2=Weihnachtsspieluhr
EXTD=YEAR: 2002
EXTT0=
EXTT1=
EXTT2=
PLAYORDER=
